{"title":"Underworld Evolution (2006) 1080p BluRay {Dual Audio} {6Ch.} [Hi","uid":9798168,"size":2508305773,"categoryP":"video","categoryS":"hd___movies","magnet":"?xt=urn:btih:1df7ff905279fd01258a974c3cf454bbee8d6890&amp;dn=Underworld+Evolution+%282006%29+1080p+BluRay+%7BDual+Audio%7D+%7B6Ch.%7D+%5BHi&amp;tr=udp%3A%2F%2Ftracker.openbittorrent.com%3A80&amp;tr=udp%3A%2F%2Fopen.demonii.com%3A1337&amp;tr=udp%3A%2F%2Ftracker.coppersurfer.tk%3A6969&amp;tr=udp%3A%2F%2Fexodus.desync.com%3A6969","seeders":4,"leechers":3,"uploader":"SaNRiM","files":-1,"time":1395345662,"description":"Storyline\n\nUnderworld: Evolution continues the saga of war between the vampires and the Lycans. The film goes back to the beginnings of the ancient feud between the two tribes as Selene, the beautiful vampire heroine, and Michael, the lycan hybrid, try to unlock the secrets of their bloodlines. This will be a modern tale of action, intrigue and forbidden love, which takes them into the battle to end all wars as the immortals must finally face their retribution.\n\n\n\nTorrent Info\n\nGeneral\n\nUnique ID : 232605410798082363772933639361586100219 (0xAEFE2C2EBE626857B48409AA381977FB)\nComplete name : Underworld Evolution (2006) 1080p BluRay {Dual Audio} {6Ch.} [Hindi DD 5.1-English DD 5.1] ~SaNRiM~.mkv\nFormat : Matroska\nFormat version : Version 4 / Version 2\nFile size : 2.33 GiB\nDuration : 1h 46mn\nOverall bit rate : 3 131 Kbps\nEncoded date : UTC 2014-03-20 18:13:32\nWriting library : libebml v1.3.0 + libmatroska v1.4.1\n\n\nVideo\n\nID : 1\nFormat : AVC\nFormat/Info : Advanced Video Codec\nFormat profile : &lt;a class=&quot;__cf_email__&quot; href=&quot;/cdn-cgi/l/email-protection&quot; data-cfemail=&quot;d991b0beb19995edf7e9&quot;&gt;[email&amp;#160;protected]&lt;/a&gt;&lt;script cf-hash='f9e31' type=&quot;text/javascript&quot;&gt;\n/* &lt;![CDATA[ */!function(){try{var t=&quot;currentScript&quot;in document?document.currentScript:function(){for(var t=document.getElementsByTagName(&quot;script&quot;),e=t.length;e--;)if(t[e].getAttribute(&quot;cf-hash&quot;))return t[e]}();if(t&amp;&amp;t.previousSibling){var e,r,n,i,c=t.previousSibling,a=c.getAttribute(&quot;data-cfemail&quot;);if(a){for(e=&quot;&quot;,r=parseInt(a.substr(0,2),16),n=2;a.length-n;n+=2)i=parseInt(a.substr(n,2),16)^r,e+=String.fromCharCode(i);e=document.createTextNode(e),c.parentNode.replaceChild(e,c)}}}catch(u){}}();/* ]]&gt; */&lt;/script&gt;\nFormat settings, CABAC : Yes\nFormat settings, ReFrames : 4 frames\nCodec ID : V_MPEG4/ISO/AVC\nDuration : 1h 46mn\nBit rate : 2 227 Kbps\nWidth : 1 920 pixels\nHeight : 800 pixels\nDisplay aspect ratio : 2.40:1\nFrame rate mode : Constant\nFrame rate : 23.976 fps\nColor space : YUV\nChroma subsampling : 4:2:0\nBit depth : 8 bits\nScan type : Progressive\nBits/(Pixel*Frame) : 0.060\nStream size : 1.61 GiB (69%)\nTitle : ~SaNRiM~\nWriting library : x264 core 128 r2216 198a7ea\nLanguage : English\nDefault : Yes\nForced : No\n\n\nAudio #1\n\nID : 2\nFormat : AC-3\nFormat/Info : Audio Coding 3\nMode extension : CM (complete main)\nFormat settings, Endianness : Big\nCodec ID : A_AC3\nDuration : 1h 46mn\nBit rate mode : Constant\nBit rate : 448 Kbps\nChannel(s) : 6 channels\nChannel positions : Front: L C R, Side: L R, LFE\nSampling rate : 48.0 KHz\nBit depth : 16 bits\nCompression mode : Lossy\nStream size : 341 MiB (14%)\nTitle : ~SaNRiM~\nLanguage : Hindi\nDefault : Yes\nForced : No\n\n\nAudio #2\n\nID : 3\nFormat : AC-3\nFormat/Info : Audio Coding 3\nMode extension : CM (complete main)\nFormat settings, Endianness : Big\nCodec ID : A_AC3\nDuration : 1h 46mn\nBit rate mode : Constant\nBit rate : 448 Kbps\nChannel(s) : 6 channels\nChannel positions : Front: L C R, Side: L R, LFE\nSampling rate : 48.0 KHz\nBit depth : 16 bits\nCompression mode : Lossy\nStream size : 341 MiB (14%)\nTitle : ~SaNRiM~\nLanguage : English\nDefault : No\nForced : No\n\n\nText\n\nID : 4\nFormat : PGS\nMuxing mode : zlib\nCodec ID : S_HDMV/PGS\nCodec ID/Info : The same subtitle format used on BDs/HD-DVDs\nTitle : ~SaNRiM~\nLanguage : English\nDefault : Yes\nForced : No\n\n\n\nScreens\n &lt;a href=&quot;\nhttp://someimage.com/uA0LuJl&quot; rel=&quot;nofollow&quot; target=&quot;_NEW&quot;&gt;\nhttp://someimage.com/uA0LuJl&lt;/a&gt; &lt;a href=&quot;\nhttp://someimage.com/Obl9Fwa&quot; rel=&quot;nofollow&quot; target=&quot;_NEW&quot;&gt;\nhttp://someimage.com/Obl9Fwa&lt;/a&gt; &lt;a href=&quot;\nhttp://someimage.com/3o4voCT&quot; rel=&quot;nofollow&quot; target=&quot;_NEW&quot;&gt;\nhttp://someimage.com/3o4voCT&lt;/a&gt; &lt;a href=&quot;\nhttp://someimage.com/bI1cMGb&quot; rel=&quot;nofollow&quot; target=&quot;_NEW&quot;&gt;\nhttp://someimage.com/bI1cMGb&lt;/a&gt; &lt;a href=&quot;\nhttp://someimage.com/IHbMrda&quot; rel=&quot;nofollow&quot; target=&quot;_NEW&quot;&gt;\nhttp://someimage.com/IHbMrda&lt;/a&gt; &lt;a href=&quot;\nhttp://someimage.com/RZXn1KF&quot; rel=&quot;nofollow&quot; target=&quot;_NEW&quot;&gt;\nhttp://someimage.com/RZXn1KF&lt;/a&gt; &lt;a href=&quot;\nhttp://someimage.com/KVn2dXo&quot; rel=&quot;nofollow&quot; target=&quot;_NEW&quot;&gt;\nhttp://someimage.com/KVn2dXo&lt;/a&gt; &lt;a href=&quot;\nhttp://someimage.com/JEfeqPh&quot; rel=&quot;nofollow&quot; target=&quot;_NEW&quot;&gt;\nhttp://someimage.com/JEfeqPh&lt;/a&gt; &lt;a href=&quot;\nhttp://someimage.com/4sJ4feD&quot; rel=&quot;nofollow&quot; target=&quot;_NEW&quot;&gt;\nhttp://someimage.com/4sJ4feD&lt;/a&gt; &lt;a href=&quot;\nhttp://someimage.com/PBEOSyw&quot; rel=&quot;nofollow&quot; target=&quot;_NEW&quot;&gt;\nhttp://someimage.com/PBEOSyw&lt;/a&gt; &lt;a href=&quot;\nhttp://someimage.com/qcnqyPR&quot; rel=&quot;nofollow&quot; target=&quot;_NEW&quot;&gt;\nhttp://someimage.com/qcnqyPR&lt;/a&gt; &lt;a href=&quot;\nhttp://someimage.com/Q0FWncg&quot; rel=&quot;nofollow&quot; target=&quot;_NEW&quot;&gt;\nhttp://someimage.com/Q0FWncg&lt;/a&gt; &lt;a href=&quot;\nhttp://someimage.com/SfT5AEJ&quot; rel=&quot;nofollow&quot; target=&quot;_NEW&quot;&gt;\nhttp://someimage.com/SfT5AEJ&lt;/a&gt; &lt;a href=&quot;\nhttp://someimage.com/wDEyEcx&quot; rel=&quot;nofollow&quot; target=&quot;_NEW&quot;&gt;\nhttp://someimage.com/wDEyEcx&lt;/a&gt; &lt;a href=&quot;\nhttp://someimage.com/bXB1KL7&quot; rel=&quot;nofollow&quot; target=&quot;_NEW&quot;&gt;\nhttp://someimage.com/bXB1KL7&lt;/a&gt; &lt;a href=&quot;\nhttp://someimage.com/z322ojB&quot; rel=&quot;nofollow&quot; target=&quot;_NEW&quot;&gt;\nhttp://someimage.com/z322ojB&lt;/a&gt; &lt;a href=&quot;\nhttp://someimage.com/j3I7b4p&quot; rel=&quot;nofollow&quot; target=&quot;_NEW&quot;&gt;\nhttp://someimage.com/j3I7b4p&lt;/a&gt; &lt;a href=&quot;\nhttp://someimage.com/KBY90pp&quot; rel=&quot;nofollow&quot; target=&quot;_NEW&quot;&gt;\nhttp://someimage.com/KBY90pp&lt;/a&gt; &lt;a href=&quot;\nhttp://someimage.com/PwR0tBx&quot; rel=&quot;nofollow&quot; target=&quot;_NEW&quot;&gt;\nhttp://someimage.com/PwR0tBx&lt;/a&gt; &lt;a href=&quot;\nhttp://someimage.com/4YP88qk&quot; rel=&quot;nofollow&quot; target=&quot;_NEW&quot;&gt;\nhttp://someimage.com/4YP88qk&lt;/a&gt; &lt;a href=&quot;\nhttp://someimage.com/CMqo9Xk&quot; rel=&quot;nofollow&quot; target=&quot;_NEW&quot;&gt;\nhttp://someimage.com/CMqo9Xk&lt;/a&gt; &lt;a href=&quot;\nhttp://someimage.com/EOZ9aXv&quot; rel=&quot;nofollow&quot; target=&quot;_NEW&quot;&gt;\nhttp://someimage.com/EOZ9aXv&lt;/a&gt;\n\n\n\n\n                  If you like my work please comment\n                          Any request? Just PM me\n                       Please seed long after download\n                         Thank you &amp; enjoy the best\n                                 ~SaNRiM~\t\n\n\nNOTE: HINDI AUDIO IS REMASTERED\n\nTHANKS TO SBAZ44 FOR AUDIO SOURCE","torrent":{"xt":"urn:btih:1df7ff905279fd01258a974c3cf454bbee8d6890","amp;dn":"Underworld+Evolution+%282006%29+1080p+BluRay+%7BDual+Audio%7D+%7B6Ch.%7D+%5BHi","amp;tr":["udp%3A%2F%2Ftracker.openbittorrent.com%3A80","udp%3A%2F%2Fopen.demonii.com%3A1337","udp%3A%2F%2Ftracker.coppersurfer.tk%3A6969","udp%3A%2F%2Fexodus.desync.com%3A6969"],"infoHash":"1df7ff905279fd01258a974c3cf454bbee8d6890","infoHashBuffer":{"type":"Buffer","data":[29,247,255,144,82,121,253,1,37,138,151,76,60,244,84,187,238,141,104,144]},"announce":[],"urlList":[]}}